<?xml version="1.0" encoding="UTF-8"?>
<svg xmlns="http://www.w3.org/2000/svg" version="1.1" viewBox="0 0 346.8 115.1">
  <defs>
    <style>
      .cls-1 {
        fill: #fff;
      }

      .cls-2 {
        fill: #1d1d1b;
      }
    </style>
  </defs>
  <!-- Generator: Adobe Illustrator 28.6.0, SVG Export Plug-In . SVG Version: 1.2.0 Build 709)  -->
  <g>
    <g id="Capa_1">
      <g id="Capa_1-2" data-name="Capa_1">
        <g>
          <path class="cls-2" d="M38.7,81.4c-4.9,0-9.1-1-12.5-2.9s-6-5.1-7.8-9.6c-1.8-4.4-2.7-10.5-2.7-18s.9-13.6,2.7-18,4.4-7.5,7.8-9.4,7.6-2.8,12.5-2.8,9.1.9,12.5,2.8,6,5,7.8,9.4c1.8,4.4,2.7,10.4,2.7,18s-.9,13.6-2.7,18-4.4,7.6-7.8,9.6c-3.4,1.9-7.6,2.9-12.5,2.9ZM38.7,70.3c2.2,0,4.2-.5,5.8-1.6s2.8-3,3.7-5.8,1.3-6.8,1.3-12-.4-9.2-1.3-11.9-2.1-4.6-3.7-5.6c-1.6-1-3.5-1.5-5.8-1.5s-4.1.5-5.7,1.5c-1.6,1-2.9,2.8-3.8,5.6s-1.3,6.7-1.3,11.9.4,9.2,1.3,12c.9,2.8,2.1,4.8,3.8,5.8,1.6,1.1,3.5,1.6,5.7,1.6h0Z"/>
          <path class="cls-2" d="M76.2,81.4c-4,0-6.1-1.9-6.1-5.7v-32c0-3.9,2-5.8,6.1-5.8s3.5.4,4.4,1.3,1.4,2.3,1.4,4.3c1-1.9,2.5-3.2,4.3-4.2,1.9-.9,4.1-1.4,6.6-1.4,4.8,0,7.3,2.1,7.3,6.3s-.6,2.8-1.8,3.5c-1.2.8-3.1,1.2-5.8,1.2s-4.7.2-6.2.7-2.6,1.4-3.2,2.6c-.6,1.3-.9,3.1-.9,5.4v18c0,3.8-2,5.7-6.1,5.7h0Z"/>
          <path class="cls-2" d="M120.6,81.4c-6.2,0-11.1-2-14.6-5.9-3.6-3.9-5.4-9.7-5.4-17.3s.7-9.1,2.2-12.1,3.5-5.1,6.1-6.4c2.6-1.3,5.6-1.9,8.9-1.9s5.4.4,7.3,1.1c1.9.7,3.3,2,4.4,3.7-.4-1.2-.7-2.3-.9-3.3s-.3-2.3-.4-3.7c0-1.4-.1-3.2-.1-5.4v-7.3c0-4.4,1.9-6.6,5.7-6.6s6.2,2.2,6.2,6.6v35.7c0,7.6-1.7,13.3-5.1,17-3.4,3.8-8.1,5.7-14.2,5.7h0ZM120,71.3c2.4,0,4.2-.8,5.5-2.5s2-4.8,2-9.4-.3-5.4-.9-7-1.4-2.7-2.6-3.3c-1.1-.6-2.5-.9-4-.9s-2.9.3-4,.9c-1.1.6-2,1.7-2.6,3.3s-.9,4-.9,7c0,4.6.7,7.8,2,9.4,1.3,1.7,3.2,2.5,5.5,2.5h0Z"/>
          <path class="cls-2" d="M169.8,81.4c-5.6,0-10-.9-13.2-2.8s-5.4-4.4-6.7-7.7c-1.3-3.3-2-7-2-11.2,0-7.8,1.7-13.3,5.1-16.7,3.4-3.4,8-5.1,13.8-5.1s6.6.6,9.3,1.8,4.8,2.9,6.3,5c1.5,2.2,2.3,4.8,2.3,7.9,0,9-6.4,13.5-19.2,13.5h-4.9c.5,1.7,1.2,3.1,2.2,4.1s2.9,1.5,5.5,1.5,2.6,0,3.5-.3c.9-.2,1.8-.3,2.6-.5s1.8-.3,2.8-.3c1.5,0,2.7.3,3.6.8.9.5,1.4,1.6,1.4,3.2s-1,4-3,5.1-5.2,1.6-9.5,1.6h0ZM160,59.8c.4-.6,1-1,1.5-1.2.6-.2,1.4-.3,2.6-.3,3.3,0,5.6-.3,6.9-1,1.3-.6,1.9-1.8,1.9-3.5s-.6-3.8-1.8-4.9c-1.2-1.2-2.7-1.7-4.5-1.7s-3.7.9-4.9,2.6c-1.2,1.7-1.8,5.1-1.8,10h.1Z"/>
          <path class="cls-2" d="M198.4,81.4c-4,0-6.1-1.9-6.1-5.7v-32c0-3.9,2-5.8,6.1-5.8s3.5.4,4.4,1.3c.9.9,1.4,2.3,1.4,4.3,1-1.9,2.5-3.2,4.3-4.2,1.9-.9,4.1-1.4,6.6-1.4,4.8,0,7.3,2.1,7.3,6.3s-.6,2.8-1.8,3.5c-1.2.8-3.1,1.2-5.8,1.2s-4.7.2-6.2.7-2.6,1.4-3.2,2.6c-.6,1.3-.9,3.1-.9,5.4v18c0,3.8-2,5.7-6.1,5.7h0Z"/>
          <path class="cls-2" d="M264.6,81.4c-3.7,0-7-.8-9.8-2.3s-5-3.7-6.5-6.4c-1.5-2.8-2.3-6-2.3-9.6v-19.7c0-3.8,2-5.7,6.1-5.7s6.1,1.9,6.1,5.7v19.6c0,2.6.6,4.7,1.7,6.2s2.7,2.2,4.8,2.2,3.7-.7,4.8-2.2c1.1-1.5,1.7-3.5,1.7-6.2v-19.6c0-3.8,2-5.7,6.1-5.7s6.1,1.9,6.1,5.7v19.7c0,3.7-.8,6.9-2.3,9.6-1.5,2.8-3.7,4.9-6.5,6.4s-6.1,2.3-9.8,2.3h-.2Z"/>
          <path class="cls-2" d="M298,100.1c-4.1,0-6.2-2.2-6.2-6.6v-33.2c0-7.6,1.7-13.4,5.1-17.1,3.4-3.8,8.1-5.7,14.2-5.7s11.1,2,14.6,5.9c3.6,3.9,5.4,9.7,5.4,17.3s-.7,9.1-2.2,12.1-3.5,5.2-6.1,6.5-5.6,2-8.9,2-5.3-.4-7.2-1.3c-1.9-.8-3.4-2.1-4.4-3.9.4,1.1.7,2.2.9,3.3.2,1.1.3,2.3.4,3.7s.1,3.2.1,5.4v4.9c0,4.4-1.9,6.6-5.7,6.6h0ZM311.7,71.6c2.4,0,4.2-.8,5.5-2.5s2-4.8,2-9.4-.7-7.7-2-9.4-3.2-2.5-5.5-2.5-4.2.8-5.5,2.5-2,4.8-2,9.4.7,7.7,2,9.4c1.3,1.7,3.2,2.5,5.5,2.5h0Z"/>
          <path class="cls-1" d="M235.8,15h-35.4c-5.7,0-8.5,3-8.5,9s2.8,9,8.5,9h35.4c5.7,0,8.5-3,8.5-9s-2.8-9-8.5-9h0Z"/>
        </g>
      </g>
    </g>
  </g>
</svg>